<svg xmlns="http://www.w3.org/2000/svg" viewBox="0 0 1080 1080"><defs><style>.cls-1{fill:#404040;}</style></defs><title>ratings</title><g id="Layer_2" data-name="Layer 2"><g id="Layer_1-2" data-name="Layer 1"><path class="cls-1" d="M895.66,692.5v-9.43h-4.79V397.45h9.5V370.27h28.77L536,105.29l-393.18,265h27.05v27.18h7.54V692.5l-33,36.76h14.14v191.9C256.21,1018.68,391.06,1079,540,1079c148.28,0,282.58-59.78,380.17-156.54V729.26h17.05ZM265,683.07H211.3V397.45H265Zm88.61,0H295.2V397.45h58.44Zm82.95,0H381V397.45h55.61Zm84.76,0H465.82V397.45h55.53Zm83.9,0H550.57V397.45h54.68Zm85.78,0H634.47V397.45H691Zm83.89,0H720.25V397.45h54.67Zm86.73,0H804.14V397.45h57.51Z"/><path class="cls-1" d="M540,0C241.77,0,0,241.77,0,540s241.77,540,540,540,540-241.77,540-540S838.23,0,540,0Zm0,1014.91C277.71,1014.91,65.09,802.29,65.09,540S277.71,65.09,540,65.09,1014.91,277.71,1014.91,540,802.29,1014.91,540,1014.91Z"/></g></g></svg>